<svg width="24" height="24" viewBox="0 0 24 24" fill="none" xmlns="http://www.w3.org/2000/svg">
  <path d="M20.52 3.48A11.88 11.88 0 0 0 12.05 0C5.47 0 .12 5.35.12 11.93c0 2.1.55 4.16 1.59 5.97L0 24l6.27-1.64a11.9 11.9 0 0 0 5.78 1.48H12.1c6.57 0 11.92-5.35 11.92-11.93 0-3.19-1.24-6.18-3.5-8.43Zm-8.42 18.35h-.04a9.9 9.9 0 0 1-5.04-1.38l-.36-.21-3.72.97.99-3.63-.23-.37a9.92 9.92 0 0 1-1.53-5.28C2.17 6.48 6.62 2.02 12.08 2.02c2.64 0 5.13 1.03 7 2.9a9.84 9.84 0 0 1 2.9 7c-.01 5.46-4.46 9.91-9.89 9.91Zm5.43-7.41c-.3-.15-1.76-.87-2.03-.96-.27-.1-.47-.15-.67.15-.2.29-.77.96-.95 1.16-.17.2-.35.22-.65.08-.3-.15-1.28-.47-2.44-1.51-.9-.8-1.51-1.79-1.69-2.09-.18-.3-.02-.46.13-.6.13-.13.3-.35.45-.52.15-.18.2-.3.3-.5.1-.2.05-.37-.02-.52-.08-.15-.67-1.63-.92-2.23-.24-.58-.48-.5-.67-.51h-.57c-.2 0-.52.08-.8.37-.27.3-1.04 1.01-1.04 2.47 0 1.45 1.07 2.86 1.22 3.06.15.2 2.09 3.18 5.06 4.46.7.3 1.26.48 1.69.62.71.22 1.36.19 1.87.12.57-.09 1.76-.72 2.01-1.42.25-.69.25-1.29.17-1.42-.07-.12-.27-.19-.57-.34Z" fill="white"/>
</svg>
